<?xml version="1.0" encoding="utf-8"?><!-- Uploaded to: SVG Repo, www.svgrepo.com, Generator: SVG Repo Mixer Tools -->
<svg width="800px" height="800px" viewBox="0 0 64 64" xmlns="http://www.w3.org/2000/svg"><path d="m52.16 33.58s1.75-3.44-1-15.62-17.87-13.75-27-10.75-10.68 8.79-10.68 8.79a10.71 10.71 0 0 0 -2.94 6.25c-.69 4.31 1 10.43 1 10.43s-3.63 1.63-1.44 5.94 6.06 3.25 6.06 3.25a13.22 13.22 0 0 0 4.57 5.31 10.54 10.54 0 0 0 -2.73 2.65c-1.38 1.88-2.63 4.06-2.57 5.13s3.32.93 4.82 1.06 5.35 1.62 6.75 1.98a23.11 23.11 0 0 0 7.25-.38c2.37-.5 2.43-.19 7.5.13s6.68-.63 7.25-.82 1.75-2 .93-4.12-6.12-6.44-6.12-6.44a8 8 0 0 0 2.19-1.79 35 35 0 0 0 2.69-3.37s4.68.06 5.68-3.25a3.45 3.45 0 0 0 -2.21-4.38zm-40.25 3.94c-.81-2.13 1.07-2.75 1.38-3 0 0 .81 2.31 1.25 3.37a6.91 6.91 0 0 1 .5 1.94 3.87 3.87 0 0 1 -3.13-2.31zm1.69-15.44c-.25.19-.25 1-.25 1s1.44 1.5 1.38 1.69a16.46 16.46 0 0 0 -1.13 4.06 8 8 0 0 1 -.69 2.75s-2.31-6.75-.68-9.94 1.77-3.5 1.77-3.5 2.81-6.43 8.68-8.37 14.32-3.63 21.42.75 7.13 18.87 7.06 19.69-.25.87-.25.87a19.84 19.84 0 0 0 -3.18-10.69c-3.44-5.25-7.57-8.81-15.44-8.68s-14.69 6.29-15.19 7.56-.94 2.12-.94 2.12-.87-1.31-1.06-1.31-.69.25-.56.63 1.06 1.37 1.06 1.62a4.75 4.75 0 0 1 -.25.94s-1.5-1.38-1.75-1.19zm34.69 30.81c.69 1.57.56 2.63.25 2.69a4 4 0 0 1 -.88 0s-3.18-5.19-3.81-5.25-.81.13-.69.44 3.32 5 3.13 5.06-.75.56-1.13.31-2.87-4.14-3.16-4.14-1 .18-.94.37 2.88 3.94 2.63 4.06a6.41 6.41 0 0 1 -1.44.13s-2.5-3.69-2.88-3.69-.62.63-.62.63 2.19 3.25 1.94 3.25a21.07 21.07 0 0 0 -5.19-.63c-2.5.13-4.44 1.13-6.63.88s-4.87-2-7.02-2.11-4.19-.12-4.25-.37.63-3.52 4.63-6.52c.54-.4 3.81 2.94 11.18 2.19s8.44-2.69 8.75-2.69 5.44 3.83 6.13 5.39zm-3-10.12c-4.5 4.12-8.56 6.62-16.19 5.44s-10.69-5.44-13-10.69-1.1-23.75 17.06-23.88c5.13 0 11.07 2.82 14.19 10.19s2.44 14.81-2.06 18.94zm7.71-4.88c-.38 1.69-3.25 1.88-3.25 1.88a7.46 7.46 0 0 0 .75-1.94c.37-1.37.68-2.62.68-2.62a2.25 2.25 0 0 1 1.82 2.68zm-31.25-15c.43.13 5.18-1.06 5.68-1.06s.25-.5-.06-.87-6.58.87-6.12.87c.04 0 .04.94.48 1.06zm18.12-.75a45.42 45.42 0 0 0 5.38.88c.62-.06.25-.19.18-.63s-5.31-1.18-5.56-1.18c-.02 0-.46.79-.02.93zm-8.12 7.25c.18-6.12-4.63-6.5-8.07-5.68-6.31 1.5-6.18 7.93-2.75 10.37s10.61 1.44 10.8-4.69zm-10.17 4c-2.91-2.07-3-7.52 2.33-8.79 2.91-.69 7-.37 6.83 4.82s-6.27 6-9.18 3.94zm16.85-9.47c-4.81 2.57-4.18 7.32-1.06 9.88s9.38 1.37 9.19-4.19-5.18-7.3-8.15-5.72zm-.5 9.08c-2.58-2.12-3.1-6 .88-8.17 2.46-1.31 6.57.1 6.72 4.7s-5.01 5.57-7.6 3.47zm-13.39-4.86c-.56.44-1.38 2 .19 2.57a1.7 1.7 0 0 0 2.37-1.82c-.1-1.18-1.65-1.45-2.56-.75zm15.56 0c-.56.44-1.37 2 .19 2.57a1.69 1.69 0 0 0 2.37-1.82c-.06-1.18-1.66-1.45-2.56-.75zm-8.94 8.94a13.56 13.56 0 0 0 4.13 2.31c1.5.38 2.62-.18 2.31-2.06a2.75 2.75 0 0 0 -2.12-2.33.4.4 0 0 0 -.44.5c.06.31 0 0 .62.5s1 1.94.5 2.25-4.1-1.82-4.37-1.88-.79.46-.63.71zm6.25 5.38a18.82 18.82 0 0 1 -5 .75c-4.31.18-6-2-6.43-1.94s-.88.5-.75.75 1.34 1.92 5.81 2.31c4.25.38 7.06-.81 7.12-1a.93.93 0 0 0 -.75-.87z" fill="#1d1d1b"/></svg>