<?xml version="1.0" encoding="utf-8"?><!-- Uploaded to: SVG Repo, www.svgrepo.com, Generator: SVG Repo Mixer Tools -->
<svg width="800px" height="800px" viewBox="0 0 64 64" xmlns="http://www.w3.org/2000/svg"><path d="m30.37 23.82a20.77 20.77 0 0 0 2.8-3.13c.2-.37-.3-.29-.59-.45s-3.17 2.57-3 3c.09.08.54.58.79.58zm7.71.46c-.29 0-4.42 4.32-4.25 4.83a9.21 9.21 0 0 0 2.09 2.13c.29.08 4.25-4.3 4.45-4.8s-2-2.16-2.29-2.16zm1 2.37c-.17.13-2.79 3.38-3 3.25s-1.21-.79-1.08-.9a32.28 32.28 0 0 1 3-3.35c.27-.07 1.21.88 1 1zm3.08.63c-.33-.17-4.57 4.77-4.54 5a10.07 10.07 0 0 0 2.34 2.08c.33.08 4.12-4.83 4.29-5.17s-1.79-1.75-2.13-1.91zm1 1.91a41.35 41.35 0 0 1 -3.29 3.81c-.16-.09-.75-.92-.91-1s3.12-3.54 3.33-3.5.92.5.79.69zm-11 2c-.67.25-8.5 8-8.75 8.84s3.83 4.2 4.17 4.45 1.16 0 1.79-.62 7.08-8.67 7.12-9.08-3.9-3.78-4.49-3.63zm-4.04 12.25c-.29.05-3.79-3.12-3.66-3.5s7.33-7.45 7.75-7.87c.18-.18 3 2.62 3 2.79s-6.79 8.54-7.09 8.58zm1.3-7.75c-.17 0-3.38 4.05-3.55 4.13 0 0 .09.62.25.71s3.42-4.29 3.59-4.46-.13-.33-.29-.38zm.37 2.13c-.17 0-3 3.17-3 3.17.17.16.42.66.54.7a42.23 42.23 0 0 0 2.79-3.33c.13-.17-.12-.54-.33-.54zm31.21 2.25a44.81 44.81 0 0 0 -6.83-6.13 3.66 3.66 0 0 0 -5.09.34c-.62.58-6 7.37-6 7.37s-2.54-2.41-2.66-2.5 5.46-5.79 7.33-8.41a3.13 3.13 0 0 0 -.75-4.74c-.54-.42-9.5-8-11.67-9.63s-4.75.34-5.21.92-5.7 6.42-5.7 6.42l-2.8-2.34s2.75-2.54 4.55-4.58 2.2-3.63 1.79-4.63-8.46-7.22-10.79-7.88-3.67 1.62-5.3 3.37-9.33 9.84-9.33 11.25 6 8.29 7.83 9.67 2.8 1.25 3.8.54 4.91-5 4.91-5l2.75 2.25s-5.91 8-6.41 9.21a2.25 2.25 0 0 0 .37 2.66c.58.59 3.79 3.46 3.79 3.46l-1.16 1.79s-5.75-1.83-8.05-1.75-3.25 1-3.16 1.59 5.87 5.68 5.87 5.68l-2.66 5.29a3.8 3.8 0 0 0 -1.05 0c-.37.08-2.29.83-2.41 2.29s.83 3.37 3.54 2.54 1.33-3.46 1.33-3.46l.67-.58c.54-.46 3.25-3.17 3.25-3.17s7.62 6.21 7.92 6.21 1.58-2.42 1.33-6a10.94 10.94 0 0 0 -3-6.33l.83-.88s4.67 4.21 6.08 4.46 2.09-.37 4.17-2.13a42.28 42.28 0 0 0 5.38-6.13 16.09 16.09 0 0 1 2.83 3c0 .25-4.21 5.29-5.17 6.79s-.12 1.79.25 2.21a71.75 71.75 0 0 0 7.55 6.17c1.83 1 3.25.54 3.87-.05s10.83-12.95 12.54-15.23 1.09-3.26.67-3.93zm-5.79-3.07c.21 0 1.79 1.41 1.71 1.62a46.52 46.52 0 0 1 -3.59 4.75 13.24 13.24 0 0 1 -1.91-1.75 44 44 0 0 1 3.79-4.62zm-7.21 9a31.77 31.77 0 0 1 2.79-3.05c.17.09 1.79 1.34 1.67 1.55s-2.59 3.37-2.75 3.2zm.87 2.62c-.08.21-1.83 2.38-2.08 2.29a20.09 20.09 0 0 1 -1.88-1.58 21.41 21.41 0 0 1 2.3-2.42c.12.09 1.71 1.49 1.62 1.7zm2.84-13.87c.87-.05 2.45 1.41 2.45 1.41s-3.45 5-3.66 4.92a28.6 28.6 0 0 1 -2.59-2.29c-.14-.17 2.88-4.01 3.76-4.05zm-4.71 5.19a9.87 9.87 0 0 1 2.75 2.42 27.57 27.57 0 0 1 -2.54 3 22.73 22.73 0 0 1 -2.92-2.25 29.12 29.12 0 0 1 2.71-3.17zm-3 4.3c.29.08 2.54 1.87 2.37 2.08s-2 2.5-2.29 2.5a11.62 11.62 0 0 1 -2.37-2c-.04-.17 1.96-2.67 2.29-2.58zm-24-23.75a30.78 30.78 0 0 1 -3.33-2.71s2.37-2.75 2.5-2.71 3.25 2.62 3.12 2.83a27.18 27.18 0 0 1 -2.29 2.59zm-7-6.09a15.59 15.59 0 0 1 2.46-2.54 19.56 19.56 0 0 1 2.91 2.54 21.92 21.92 0 0 1 -2.2 2.5 29.79 29.79 0 0 1 -3.17-2.5zm2.33 3.25a20.14 20.14 0 0 1 -2.87 3.21c-.13-.17-2.54-2.79-2.54-2.75 0 .27 2.16-3 2.37-2.87s3.17 2.12 3.04 2.41zm8.29-7.25c.13 0 2.75 1.59 2.34 2.84a13.14 13.14 0 0 1 -2.75 3.76c-.13-.09-3.17-2.84-3.17-2.84s3.46-3.76 3.58-3.76zm-1-.46c-.12.13-3.25 3.71-3.5 3.55s-2.83-2.59-2.87-2.71 3.21-3.25 3.21-3.25a30.24 30.24 0 0 1 3.16 2.41zm-6.41-3.94c.71.08 2.33.87 2.16 1.08a39.59 39.59 0 0 1 -3 3 23 23 0 0 1 -1.71-1.71s1.84-2.43 2.55-2.37zm-3.21 3.4c.17.09 1.79 1.46 1.62 1.63s-2.16 2.71-2.33 2.58a21.41 21.41 0 0 1 -1.71-1.79 22.11 22.11 0 0 1 2.42-2.42zm-3.33 3.5c.29.09 1.87 1.25 1.7 1.54s-2.08 2.88-2.37 2.75a13.48 13.48 0 0 1 -1.75-1.83c-.03-.2 2.12-2.54 2.42-2.46zm-3.67 7.79a9.72 9.72 0 0 1 -1.42-1.87c-.08-.38 1.79-2.42 2-2.29s1.84 1.37 1.67 1.58-2.08 2.71-2.25 2.58zm3.33 4c-.17-.08-2.71-3.25-2.71-3.29a12.57 12.57 0 0 1 2.63-2.58c.16.12 2.66 2.41 2.58 2.71a17.69 17.69 0 0 1 -2.54 3.12zm3.25 3.13a8.69 8.69 0 0 1 -2.62-2.59 25.16 25.16 0 0 1 2.91-3c.21.09 3 2.71 2.88 3s-2 3.05-3.21 2.55zm3.92-3.34c-.17-.08-3.21-3.16-3.21-3.16.17-.17 3-2.79 3-2.79s3.08 2.41 3 2.75a20.12 20.12 0 0 1 -2.83 3.16zm3.21-1.48c-.25-.1.91-1.17 1.12-1.09a16.36 16.36 0 0 1 2.71 2.59 8.52 8.52 0 0 1 -1 1.08s-2.62-2.47-2.83-2.58zm-8.59 34.32c-.2.87-2.2 1.62-2.91.54s.37-2 1-2.25a1.62 1.62 0 0 1 1.91 1.71zm4-5.92a37.94 37.94 0 0 1 -3.46 3.54c-.2 0-.58 0-.41-.25s2.33-4.66 2.62-4.83 1.55 1.14 1.21 1.54zm7.88 2.25c0 .63 0 1.38-.25 1.29s-1.17-.62-1.13-.75.25-3.12 0-3.41a3.51 3.51 0 0 0 -.83-.54 23.05 23.05 0 0 1 -.21 3.08l-.62-.63a12.29 12.29 0 0 0 -.13-2.45c-.17-.13-.58-.42-.71-.38s0 2.21-.21 2.13-3.91-3.63-5.62-5.3-3.54-3.16-3.33-3.33a19.25 19.25 0 0 1 6.12.92c2.75.83 3.71 1.41 5 3.25a16.63 16.63 0 0 1 1.92 6.12zm-.88-9.5c-.25.25-.58.63-.75.59s-.91-.67-1.25-.8.17-1.12.38-1.33 1.87 1.29 1.62 1.54zm16.84-6a9.06 9.06 0 0 0 -.84-1.87c-.16 0-.54.45-.54.45a12 12 0 0 1 .75 2.13c-.08.17-1 1.17-1 1.17a16.76 16.76 0 0 0 -.75-2.38c-.12 0-.46.46-.46.46s.8 2.42.59 2.62-1.09 1.21-1.09 1.21l-.75-2.21s-.75.25-.62.46a15.07 15.07 0 0 1 .75 2.34 2.11 2.11 0 0 1 -.33.5l-1-2.46-.55.58a18.15 18.15 0 0 1 .92 2.5 11.74 11.74 0 0 1 -.75 1l-.87-2.37s-.55.16-.5.41.83 2.29.66 2.54-.54.88-.54.88a12.93 12.93 0 0 0 -1.12-2.54c-.21 0-.59.33-.55.46s1.13 2.5.92 2.7a5.6 5.6 0 0 1 -.79.55 15.07 15.07 0 0 0 -.79-2.38c-.17 0-.75 0-.67.17a10.74 10.74 0 0 1 .54 2.54c-.16 0-1-.33-4.16-2.83s-8.3-7.38-8.42-8.09 1-2.08 1.42-2.58c1.27-1.7 8-9.92 10.5-12.75s4.21-4.12 5.58-3.58 9.96 8.22 10.79 8.83 2 1.71 1.21 3.25-7.5 8.25-7.5 8.25zm.33 2.54a4.68 4.68 0 0 1 .71-.79c.2-.1 2.71 2.25 2.58 2.5s-.5.92-.62.83a21.59 21.59 0 0 1 -2.67-2.58zm.83 13.21c-.33-.08-2.5-1.5-2.2-2.25a31.73 31.73 0 0 1 2.75-3.67c.16.09 2.75 2.05 2.54 2.25s-2.75 3.71-3.09 3.63zm2.42 1.83c-.33-.08-1.54-.87-1.46-1.12s2.92-3.96 2.92-3.96c.33.09 1.91 1.29 1.75 1.5s-2.88 3.63-3.21 3.54zm4.67 1.75c-.67.75-1.25 1.05-2.13.55s-1.83-1.21-1.71-1.5 3.25-3.67 3.25-3.67a21.43 21.43 0 0 1 2.59 2.12c-.09.13-1.34 1.71-2 2.46zm2.79-3.66c-.33-.17-2.67-1.88-2.54-2a25.79 25.79 0 0 1 2.17-2.29 17.14 17.14 0 0 1 2.25 2c-.05.16-1.51 2.47-1.88 2.29zm2.71-3.38c-.13-.08-2.08-2.08-2.25-2.2 0 0 2.75-3.38 2.87-3.34a12.16 12.16 0 0 1 2.09 2.1 26.06 26.06 0 0 1 -2.67 3.44zm7-8.91a24 24 0 0 1 -3.5 4.33c-.12 0-2.12-1.92-2.12-1.92.2-.29 3.58-4.62 3.58-4.62s2.33 1.42 2.12 2.21z" fill="#1d1d1b"/></svg>